# xmcd
#
# Track frame offsets:
#	150
#	13598
#	28708
#	42678
#	57668
#	71914
#	83149
#	96012
#	113645
#	132076
#	144753
#	158088
#	177612
#	188214
#	204787
#	222761
#	234830
#	248837
#	266991
#	277567
#	287089
#	301895
#	319250
#
# Disc length: 4444 seconds
#
# Revision: 0
# Processed by: cddbd v1.5.2PL0 Copyright (c) Steve Scherf et al.
# Submitted via: audiograbber 1.83.01
#
DISCID=47115a17
DTITLE=Joyce-Ramgatie - Joyce-Ramgatie 006
DYEAR=2007
DGENRE=Country
TTITLE0=Tumbling Tumbleweeds - Jim Owen
TTITLE1=God´s Christmas Eagle  - Brian Phillip Wardwell
TTITLE2=Good Ol´ Country  - Dick Barnes
TTITLE3=A Country Christmas  - Joyce Ramgatie
TTITLE4=Sixteen Tons  - Jim Owen
TTITLE5=Our Special Christmas Tree  - Cindy Lane Adams
TTITLE6=A Nashville Christmas - Brian Barker
TTITLE7=She´ll Give You Something  - Sherry Baker
TTITLE8=These Lips - Pete Rose
TTITLE9=Jesus Calling You  - Sandra Lee Burdick
TTITLE10=Mirande  - Joe Leggo
TTITLE11=The Letter - Tony Pollon
TTITLE12=I´m Not In Mood For Love  - Ann J Morton
TTITLE13=Honey Please Don´t Turn Away  - Cindy Lane Adams 
TTITLE14=Eve Of Destruction  - Randall Cousins
TTITLE15=If I Would, Would You - Kitty Houson
TTITLE16=Wind Lullaby  - Buck Page
TTITLE17=Walking Through Tommorrow  - J K Coltrain
TTITLE18=Baby´s Eyes - Jim Mundy
TTITLE19=Your Good Girl´s Gonna Go Bad - Pattie Mckinnon
TTITLE20=Going Home For Christmas  - Joyce Ramgatie 
TTITLE21=Brothers Of The Bible, Soldiers Of The Cross - Vernon Oxford
TTITLE22=Teddy Bear Song  - Jim Owen and Barbara Fairchild
EXTD=
EXTT0=
EXTT1=
EXTT2=
EXTT3=
EXTT4=
EXTT5=
EXTT6=
EXTT7=
EXTT8=
EXTT9=
EXTT10=
EXTT11=
EXTT12=
EXTT13=
EXTT14=
EXTT15=
EXTT16=
EXTT17=
EXTT18=
EXTT19=
EXTT20=
EXTT21=
EXTT22=
PLAYORDER=
